# Blender v2.80 (sub 74) OBJ File: 'Tiles.blend'
# www.blender.org
mtllib Counter.mtl
o Cylinder_Cylinder.002
v 0.000000 0.000000 -0.460492
v 0.000000 -0.000000 0.460492
v 0.000000 0.915835 -0.460492
v 0.000000 1.000000 -0.422324
v 0.000000 0.975349 -0.449313
v 0.000000 1.000000 0.422324
v 0.000000 0.915835 0.460492
v 0.000000 0.975349 0.449313
v 0.342020 0.939693 -0.422324
v 0.313234 0.860603 -0.460492
v 0.333589 0.916528 -0.449313
v 0.313234 0.860603 0.460492
v 0.342020 0.939693 0.422324
v 0.333589 0.916528 0.449313
v 0.642788 0.766044 -0.422324
v 0.588687 0.701570 -0.460492
v 0.626942 0.747160 -0.449313
v 0.588687 0.701570 0.460492
v 0.642788 0.766044 0.422324
v 0.626942 0.747160 0.449313
v 0.866025 0.500000 -0.422324
v 0.793136 0.457917 -0.460492
v 0.844677 0.487674 -0.449313
v 0.793136 0.457917 0.460492
v 0.866025 0.500000 0.422324
v 0.844677 0.487674 0.449313
v 0.984808 0.173648 -0.422324
v 0.901921 0.159033 -0.460492
v 0.960531 0.169367 -0.449313
v 0.901921 0.159033 0.460492
v 0.984808 0.173648 0.422324
v 0.960531 0.169367 0.449313
v 0.984808 -0.173648 -0.422324
v 0.901921 -0.159033 -0.460492
v 0.960531 -0.169368 -0.449313
v 0.901921 -0.159033 0.460492
v 0.984808 -0.173648 0.422324
v 0.960531 -0.169368 0.449313
v 0.866025 -0.500000 -0.422324
v 0.793136 -0.457917 -0.460492
v 0.844677 -0.487674 -0.449313
v 0.793136 -0.457917 0.460492
v 0.866025 -0.500000 0.422324
v 0.844677 -0.487674 0.449313
v 0.642788 -0.766044 -0.422324
v 0.588687 -0.701570 -0.460492
v 0.626942 -0.747160 -0.449313
v 0.588687 -0.701570 0.460492
v 0.642788 -0.766044 0.422324
v 0.626942 -0.747160 0.449313
v 0.342020 -0.939693 -0.422324
v 0.313234 -0.860603 -0.460492
v 0.333589 -0.916528 -0.449313
v 0.313234 -0.860603 0.460492
v 0.342020 -0.939693 0.422324
v 0.333589 -0.916528 0.449313
v 0.000000 -1.000000 -0.422324
v 0.000000 -0.915835 -0.460492
v 0.000000 -0.975348 -0.449313
v 0.000000 -0.915835 0.460492
v 0.000000 -1.000000 0.422324
v 0.000000 -0.975348 0.449313
v -0.342020 -0.939693 -0.422324
v -0.313234 -0.860603 -0.460492
v -0.333589 -0.916528 -0.449313
v -0.313234 -0.860603 0.460492
v -0.342020 -0.939693 0.422324
v -0.333589 -0.916528 0.449313
v -0.642787 -0.766045 -0.422324
v -0.588687 -0.701570 -0.460492
v -0.626942 -0.747160 -0.449313
v -0.588687 -0.701570 0.460492
v -0.642787 -0.766045 0.422324
v -0.626942 -0.747160 0.449313
v -0.866025 -0.500000 -0.422324
v -0.793136 -0.457918 -0.460492
v -0.844676 -0.487675 -0.449313
v -0.793136 -0.457918 0.460492
v -0.866025 -0.500000 0.422324
v -0.844676 -0.487675 0.449313
v -0.984808 -0.173649 -0.422324
v -0.901921 -0.159033 -0.460492
v -0.960531 -0.169368 -0.449313
v -0.901921 -0.159033 0.460492
v -0.984808 -0.173649 0.422324
v -0.960531 -0.169368 0.449313
v -0.984808 0.173648 -0.422324
v -0.901921 0.159033 -0.460492
v -0.960531 0.169367 -0.449313
v -0.901921 0.159033 0.460492
v -0.984808 0.173648 0.422324
v -0.960531 0.169367 0.449313
v -0.866026 0.500000 -0.422324
v -0.793136 0.457917 -0.460492
v -0.844677 0.487674 -0.449313
v -0.793136 0.457917 0.460492
v -0.866026 0.499999 0.422324
v -0.844677 0.487674 0.449313
v -0.642788 0.766044 -0.422324
v -0.588688 0.701570 -0.460492
v -0.626942 0.747160 -0.449313
v -0.588688 0.701570 0.460492
v -0.642788 0.766044 0.422324
v -0.626942 0.747160 0.449313
v -0.342021 0.939692 -0.422324
v -0.313235 0.860603 -0.460492
v -0.333590 0.916528 -0.449313
v -0.313235 0.860603 0.460492
v -0.342021 0.939692 0.422324
v -0.333590 0.916528 0.449313
vt 0.558995 0.665214
vt 0.558995 0.348060
vt 0.662499 0.348060
vt 0.662499 0.665214
vt 0.189542 0.188747
vt 0.293926 0.313322
vt 0.245024 0.341510
vt 0.448849 0.665214
vt 0.448849 0.348060
vt 0.990754 0.013896
vt 0.990754 0.338066
vt 0.878171 0.338066
vt 0.878171 0.013896
vt 0.189430 0.351273
vt 0.189542 0.188747
vt 0.085159 0.064172
vt 0.134061 0.035983
vt 0.765588 0.338066
vt 0.765588 0.013896
vt 0.133849 0.341433
vt 0.048847 0.107386
vt 0.666584 0.338066
vt 0.666584 0.013896
vt 0.084986 0.313177
vt 0.029505 0.160413
vt 0.667454 0.664575
vt 0.667454 0.341986
vt 0.779488 0.341986
vt 0.779488 0.664575
vt 0.048734 0.269912
vt 0.029465 0.216858
vt 0.891522 0.341986
vt 0.891522 0.664575
vt 0.029465 0.216858
vt 0.048734 0.269913
vt 0.990043 0.341986
vt 0.990043 0.664575
vt 0.029505 0.160413
vt 0.084986 0.313177
vt 0.991474 0.673905
vt 0.991474 0.989924
vt 0.881722 0.989924
vt 0.881722 0.673905
vt 0.048847 0.107386
vt 0.133849 0.341433
vt 0.771970 0.989924
vt 0.771970 0.673905
vt 0.085159 0.064172
vt 0.189430 0.351273
vt 0.675456 0.989924
vt 0.675456 0.673905
vt 0.134061 0.035983
vt 0.245024 0.341510
vt 0.350344 0.990699
vt 0.350344 0.668963
vt 0.448605 0.668963
vt 0.448605 0.990699
vt 0.189655 0.026220
vt 0.293926 0.313322
vt 0.560342 0.668963
vt 0.560342 0.990699
vt 0.245236 0.036060
vt 0.330238 0.270108
vt 0.672080 0.668963
vt 0.672080 0.990699
vt 0.294099 0.064317
vt 0.349580 0.217080
vt 0.339323 0.669978
vt 0.339323 0.995349
vt 0.226323 0.995349
vt 0.226323 0.669978
vt 0.330351 0.107581
vt 0.349619 0.160635
vt 0.113323 0.995349
vt 0.113323 0.669978
vt 0.349619 0.160635
vt 0.330351 0.107581
vt 0.013952 0.995349
vt 0.013952 0.669978
vt 0.349580 0.217080
vt 0.294099 0.064317
vt 0.345345 0.665214
vt 0.345345 0.348060
vt 0.245236 0.036060
vt 0.330238 0.270108
vt 0.189655 0.026220
vt 0.350662 0.281769
vt 0.309130 0.331265
vt 0.301417 0.322223
vt 0.340322 0.275910
vt 0.125911 0.013922
vt 0.189542 0.002702
vt 0.189638 0.014587
vt 0.130066 0.025057
vt 0.253173 0.363572
vt 0.249018 0.352437
vt 0.069955 0.046228
vt 0.077668 0.055271
vt 0.189542 0.374792
vt 0.189446 0.362907
vt 0.028423 0.095725
vt 0.038763 0.101583
vt 0.125911 0.363572
vt 0.129886 0.352371
vt 0.006324 0.156441
vt 0.018045 0.158410
vt 0.069955 0.331265
vt 0.077521 0.322100
vt 0.006324 0.221053
vt 0.018011 0.218895
vt 0.028423 0.281769
vt 0.038667 0.275744
vt 0.028423 0.281769
vt 0.038667 0.275744
vt 0.006324 0.221053
vt 0.018011 0.218895
vt 0.069955 0.331266
vt 0.077521 0.322100
vt 0.006324 0.156440
vt 0.018045 0.158409
vt 0.125911 0.363572
vt 0.129886 0.352371
vt 0.028423 0.095724
vt 0.038763 0.101583
vt 0.189543 0.374792
vt 0.189446 0.362907
vt 0.069955 0.046228
vt 0.077668 0.055270
vt 0.253174 0.363572
vt 0.249018 0.352437
vt 0.125911 0.013922
vt 0.130067 0.025057
vt 0.309130 0.331265
vt 0.301417 0.322223
vt 0.189543 0.002702
vt 0.189639 0.014587
vt 0.350662 0.281769
vt 0.340322 0.275910
vt 0.253174 0.013922
vt 0.249199 0.025123
vt 0.372761 0.221053
vt 0.361040 0.219084
vt 0.309130 0.046228
vt 0.301564 0.055394
vt 0.372761 0.156440
vt 0.361074 0.158599
vt 0.350662 0.095725
vt 0.340418 0.101750
vt 0.350662 0.095724
vt 0.340418 0.101750
vt 0.372761 0.156440
vt 0.361074 0.158599
vt 0.309130 0.046228
vt 0.301564 0.055394
vt 0.372761 0.221053
vt 0.361040 0.219084
vt 0.253173 0.013922
vt 0.249199 0.025123
vn -0.0000 0.9372 -0.3489
vn -0.0000 0.9372 0.3489
vn 0.3205 0.8807 0.3489
vn 0.3205 0.8807 -0.3489
vn 0.0000 0.0000 -1.0000
vn 0.0352 0.0967 -0.9947
vn 0.0661 0.0788 -0.9947
vn -0.3205 0.8807 -0.3489
vn -0.3205 0.8807 0.3489
vn 0.6024 0.7179 0.3489
vn 0.6024 0.7179 -0.3489
vn 0.0891 0.0514 -0.9947
vn 0.0000 -0.0000 1.0000
vn 0.0661 0.0788 0.9947
vn 0.0352 0.0967 0.9947
vn 0.8116 0.4686 0.3489
vn 0.8116 0.4686 -0.3489
vn 0.1013 0.0179 -0.9947
vn 0.0891 0.0514 0.9947
vn 0.9229 0.1627 0.3489
vn 0.9229 0.1627 -0.3489
vn 0.1013 -0.0179 -0.9947
vn 0.1013 0.0179 0.9947
vn 0.9229 -0.1627 0.3489
vn 0.9229 -0.1627 -0.3489
vn 0.0891 -0.0514 -0.9947
vn 0.1013 -0.0179 0.9947
vn 0.8116 -0.4686 0.3489
vn 0.8116 -0.4686 -0.3489
vn 0.0661 -0.0788 -0.9947
vn 0.0891 -0.0514 0.9947
vn 0.6024 -0.7179 0.3489
vn 0.6024 -0.7179 -0.3489
vn 0.0352 -0.0967 -0.9947
vn 0.0661 -0.0788 0.9947
vn 0.3205 -0.8807 0.3489
vn 0.3205 -0.8807 -0.3489
vn -0.0000 -0.1029 -0.9947
vn 0.0352 -0.0967 0.9947
vn 0.0000 -0.9372 0.3489
vn 0.0000 -0.9372 -0.3489
vn -0.0352 -0.0967 -0.9947
vn -0.0000 -0.1029 0.9947
vn -0.3205 -0.8807 0.3489
vn -0.3205 -0.8807 -0.3489
vn -0.0661 -0.0788 -0.9947
vn -0.0352 -0.0967 0.9947
vn -0.6024 -0.7179 0.3489
vn -0.6024 -0.7179 -0.3489
vn -0.0891 -0.0514 -0.9947
vn -0.0661 -0.0788 0.9947
vn -0.8116 -0.4686 0.3489
vn -0.8116 -0.4686 -0.3489
vn -0.1013 -0.0179 -0.9947
vn -0.0891 -0.0514 0.9947
vn -0.9229 -0.1627 0.3489
vn -0.9229 -0.1627 -0.3489
vn -0.1013 0.0179 -0.9947
vn -0.1013 -0.0179 0.9947
vn -0.9229 0.1627 0.3489
vn -0.9229 0.1627 -0.3489
vn -0.0891 0.0514 -0.9947
vn -0.1013 0.0179 0.9947
vn -0.8116 0.4686 0.3489
vn -0.8116 0.4686 -0.3489
vn -0.0661 0.0788 -0.9947
vn -0.0891 0.0514 0.9947
vn -0.6024 0.7179 0.3489
vn -0.6024 0.7179 -0.3489
vn -0.0352 0.0967 -0.9947
vn -0.0661 0.0788 0.9947
vn -0.0352 0.0967 0.9947
vn -0.0000 0.1029 -0.9947
vn -0.0000 0.1029 0.9947
vn 0.1753 0.4816 -0.8587
vn -0.0000 0.5125 -0.8587
vn -0.0000 0.5125 0.8587
vn 0.1753 0.4816 0.8587
vn 0.3294 0.3926 -0.8587
vn 0.3294 0.3926 0.8587
vn 0.4439 0.2563 -0.8587
vn 0.4439 0.2563 0.8587
vn 0.5047 0.0890 -0.8587
vn 0.5047 0.0890 0.8587
vn 0.5047 -0.0890 -0.8587
vn 0.5047 -0.0890 0.8587
vn 0.4439 -0.2563 -0.8587
vn 0.4439 -0.2563 0.8587
vn 0.3294 -0.3926 -0.8587
vn 0.3294 -0.3926 0.8587
vn 0.1753 -0.4816 -0.8587
vn 0.1753 -0.4816 0.8587
vn -0.0000 -0.5125 -0.8587
vn 0.0000 -0.5125 0.8587
vn -0.1753 -0.4816 -0.8587
vn -0.1753 -0.4816 0.8587
vn -0.3294 -0.3926 -0.8587
vn -0.3294 -0.3926 0.8587
vn -0.4439 -0.2563 -0.8587
vn -0.4439 -0.2563 0.8587
vn -0.5047 -0.0890 -0.8587
vn -0.5047 -0.0890 0.8587
vn -0.5047 0.0890 -0.8587
vn -0.5047 0.0890 0.8587
vn -0.4439 0.2563 -0.8587
vn -0.4439 0.2563 0.8587
vn -0.3294 0.3926 -0.8587
vn -0.3294 0.3926 0.8587
vn -0.1753 0.4816 -0.8587
vn -0.1753 0.4816 0.8587
usemtl None
s 1
f 4/1/1 6/2/2 13/3/3 9/4/4
f 1/5/5 10/6/6 16/7/7
f 105/8/8 109/9/9 6/2/2 4/1/1
f 9/10/4 13/11/3 19/12/10 15/13/11
f 1/5/5 16/7/7 22/14/12
f 2/15/13 18/16/14 12/17/15
f 15/13/11 19/12/10 25/18/16 21/19/17
f 1/5/5 22/14/12 28/20/18
f 2/15/13 24/21/19 18/16/14
f 21/19/17 25/18/16 31/22/20 27/23/21
f 1/5/5 28/20/18 34/24/22
f 2/15/13 30/25/23 24/21/19
f 27/26/21 31/27/20 37/28/24 33/29/25
f 1/5/5 34/24/22 40/30/26
f 2/15/13 36/31/27 30/25/23
f 33/29/25 37/28/24 43/32/28 39/33/29
f 1/5/5 40/30/26 46/34/30
f 2/15/13 42/35/31 36/31/27
f 39/33/29 43/32/28 49/36/32 45/37/33
f 1/5/5 46/34/30 52/38/34
f 2/15/13 48/39/35 42/35/31
f 45/40/33 49/41/32 55/42/36 51/43/37
f 1/5/5 52/38/34 58/44/38
f 2/15/13 54/45/39 48/39/35
f 51/43/37 55/42/36 61/46/40 57/47/41
f 1/5/5 58/44/38 64/48/42
f 2/15/13 60/49/43 54/45/39
f 57/47/41 61/46/40 67/50/44 63/51/45
f 1/5/5 64/48/42 70/52/46
f 2/15/13 66/53/47 60/49/43
f 63/54/45 67/55/44 73/56/48 69/57/49
f 1/5/5 70/52/46 76/58/50
f 2/15/13 72/59/51 66/53/47
f 69/57/49 73/56/48 79/60/52 75/61/53
f 1/5/5 76/58/50 82/62/54
f 2/15/13 78/63/55 72/59/51
f 75/61/53 79/60/52 85/64/56 81/65/57
f 1/5/5 82/62/54 88/66/58
f 2/15/13 84/67/59 78/63/55
f 81/68/57 85/69/56 91/70/60 87/71/61
f 1/5/5 88/66/58 94/72/62
f 2/15/13 90/73/63 84/67/59
f 87/71/61 91/70/60 97/74/64 93/75/65
f 1/5/5 94/72/62 100/76/66
f 2/15/13 96/77/67 90/73/63
f 93/75/65 97/74/64 103/78/68 99/79/69
f 1/5/5 100/76/66 106/80/70
f 2/15/13 102/81/71 96/77/67
f 99/82/69 103/83/68 109/9/9 105/8/8
f 2/15/13 108/84/72 102/81/71
f 1/5/5 3/85/73 10/6/6
f 2/15/13 12/17/15 7/86/74
f 2/15/13 7/86/74 108/84/72
f 4/87/1 9/88/4 11/89/75 5/90/76
f 5/90/76 11/89/75 10/6/6 3/85/73
f 13/91/3 6/92/2 8/93/77 14/94/78
f 14/94/78 8/93/77 7/86/74 12/17/15
f 9/88/4 15/95/11 17/96/79 11/89/75
f 11/89/75 17/96/79 16/7/7 10/6/6
f 19/97/10 13/91/3 14/94/78 20/98/80
f 20/98/80 14/94/78 12/17/15 18/16/14
f 15/95/11 21/99/17 23/100/81 17/96/79
f 17/96/79 23/100/81 22/14/12 16/7/7
f 25/101/16 19/97/10 20/98/80 26/102/82
f 26/102/82 20/98/80 18/16/14 24/21/19
f 21/99/17 27/103/21 29/104/83 23/100/81
f 23/100/81 29/104/83 28/20/18 22/14/12
f 31/105/20 25/101/16 26/102/82 32/106/84
f 32/106/84 26/102/82 24/21/19 30/25/23
f 27/103/21 33/107/25 35/108/85 29/104/83
f 29/104/83 35/108/85 34/24/22 28/20/18
f 37/109/24 31/105/20 32/106/84 38/110/86
f 38/110/86 32/106/84 30/25/23 36/31/27
f 33/107/25 39/111/29 41/112/87 35/108/85
f 35/108/85 41/112/87 40/30/26 34/24/22
f 43/113/28 37/109/24 38/110/86 44/114/88
f 44/114/88 38/110/86 36/31/27 42/35/31
f 39/111/29 45/115/33 47/116/89 41/112/87
f 41/112/87 47/116/89 46/34/30 40/30/26
f 49/117/32 43/113/28 44/114/88 50/118/90
f 50/118/90 44/114/88 42/35/31 48/39/35
f 45/115/33 51/119/37 53/120/91 47/116/89
f 47/116/89 53/120/91 52/38/34 46/34/30
f 55/121/36 49/117/32 50/118/90 56/122/92
f 56/122/92 50/118/90 48/39/35 54/45/39
f 51/119/37 57/123/41 59/124/93 53/120/91
f 53/120/91 59/124/93 58/44/38 52/38/34
f 61/125/40 55/121/36 56/122/92 62/126/94
f 62/126/94 56/122/92 54/45/39 60/49/43
f 57/123/41 63/127/45 65/128/95 59/124/93
f 59/124/93 65/128/95 64/48/42 58/44/38
f 67/129/44 61/125/40 62/126/94 68/130/96
f 68/130/96 62/126/94 60/49/43 66/53/47
f 63/127/45 69/131/49 71/132/97 65/128/95
f 65/128/95 71/132/97 70/52/46 64/48/42
f 73/133/48 67/129/44 68/130/96 74/134/98
f 74/134/98 68/130/96 66/53/47 72/59/51
f 69/131/49 75/135/53 77/136/99 71/132/97
f 71/132/97 77/136/99 76/58/50 70/52/46
f 79/137/52 73/133/48 74/134/98 80/138/100
f 80/138/100 74/134/98 72/59/51 78/63/55
f 75/135/53 81/139/57 83/140/101 77/136/99
f 77/136/99 83/140/101 82/62/54 76/58/50
f 85/141/56 79/137/52 80/138/100 86/142/102
f 86/142/102 80/138/100 78/63/55 84/67/59
f 81/139/57 87/143/61 89/144/103 83/140/101
f 83/140/101 89/144/103 88/66/58 82/62/54
f 91/145/60 85/141/56 86/142/102 92/146/104
f 92/146/104 86/142/102 84/67/59 90/73/63
f 87/143/61 93/147/65 95/148/105 89/144/103
f 89/144/103 95/148/105 94/72/62 88/66/58
f 97/149/64 91/145/60 92/146/104 98/150/106
f 98/150/106 92/146/104 90/73/63 96/77/67
f 93/147/65 99/151/69 101/152/107 95/148/105
f 95/148/105 101/152/107 100/76/66 94/72/62
f 103/153/68 97/149/64 98/150/106 104/154/108
f 104/154/108 98/150/106 96/77/67 102/81/71
f 99/151/69 105/155/8 107/156/109 101/152/107
f 101/152/107 107/156/109 106/80/70 100/76/66
f 109/157/9 103/153/68 104/154/108 110/158/110
f 110/158/110 104/154/108 102/81/71 108/84/72
f 105/155/8 4/87/1 5/90/76 107/156/109
f 107/156/109 5/90/76 3/85/73 106/80/70
f 6/92/2 109/157/9 110/158/110 8/93/77
f 8/93/77 110/158/110 108/84/72 7/86/74
f 1/5/5 106/80/70 3/85/73
