# Blender v2.80 (sub 74) OBJ File: 'Tiles.blend'
# www.blender.org
mtllib spinner_holder_low.mtl
o Cube.008_Cube.020
v -1.787317 -0.087316 1.220513
v -1.787317 0.087316 1.220513
v -1.787317 -0.087316 -1.220513
v -1.787317 0.087316 -1.220513
v 1.787317 -0.087316 1.220513
v 1.787317 0.087316 1.220513
v 1.787317 -0.087316 -1.220513
v 1.787317 0.087316 -1.220513
v -2.102470 -0.087316 0.000000
v -2.102470 0.087316 0.000000
v 2.102470 -0.087316 0.000000
v 2.102470 0.087316 0.000000
v -2.051331 0.087316 -0.275380
v 2.051331 -0.087316 -0.275380
v -2.051331 -0.087316 -0.275380
v 2.051331 0.087316 -0.275380
v -2.051331 -0.087316 0.275379
v 2.051331 0.087316 0.275379
v -2.051331 0.087316 0.275379
v 2.051331 -0.087316 0.275379
vt 0.791645 0.596617
vt 0.734951 0.596616
vt 0.734951 0.349159
vt 0.791645 0.349159
vt 0.811158 0.193098
vt 0.860717 0.193098
vt 0.860717 0.998308
vt 0.811158 0.998308
vt 0.720196 0.620727
vt 0.654385 0.620126
vt 0.654385 0.388606
vt 0.720196 0.388606
vt 0.580560 0.265820
vt 0.638189 0.265820
vt 0.638189 0.984179
vt 0.580560 0.984179
vt 0.365078 0.979736
vt 0.365078 0.354931
vt 0.570169 0.395138
vt 0.570169 0.939528
vt 0.245564 0.979736
vt 0.245564 0.354931
vt 0.305321 0.347143
vt 0.305321 0.987524
vt 0.720196 0.754586
vt 0.654385 0.753639
vt 0.654385 0.686882
vt 0.720196 0.687656
vt 0.791645 0.739321
vt 0.734951 0.739321
vt 0.734951 0.667969
vt 0.791645 0.667969
vt 0.720196 0.986706
vt 0.654385 0.985158
vt 0.040472 0.939528
vt 0.040472 0.395138
vt 0.791645 0.986778
vt 0.734951 0.986778
vn -0.9741 0.0000 -0.2260
vn -0.9631 0.0000 -0.2690
vn 0.0000 0.0000 -1.0000
vn 0.9741 0.0000 0.2260
vn 0.9631 0.0000 0.2690
vn 0.0000 0.0000 1.0000
vn 0.0000 1.0000 -0.0000
vn 0.9741 0.0000 -0.2260
vn 1.0000 0.0000 0.0000
vn -0.9741 0.0000 0.2260
vn -1.0000 0.0000 0.0000
vn 0.9631 0.0000 -0.2690
vn -0.9631 0.0000 0.2690
usemtl None
s 1
f 15/1/1 13/2/1 4/3/2 3/4/2
f 3/5/3 4/6/3 8/7/3 7/8/3
f 20/9/4 18/10/4 6/11/5 5/12/5
f 5/13/6 6/14/6 2/15/6 1/16/6
f 18/17/7 19/18/7 2/19/7 6/20/7
f 16/21/7 13/22/7 10/23/7 12/24/7
f 14/25/8 16/26/8 12/27/9 11/28/9
f 17/29/10 19/30/10 10/31/11 9/32/11
f 7/33/12 8/34/12 16/26/8 14/25/8
f 8/35/7 4/36/7 13/22/7 16/21/7
f 9/32/11 10/31/11 13/2/1 15/1/1
f 1/37/13 2/38/13 19/30/10 17/29/10
f 12/24/7 10/23/7 19/18/7 18/17/7
f 11/28/9 12/27/9 18/10/4 20/9/4
